<?xml version="1.0" standalone="no"?>
<!DOCTYPE svg PUBLIC "-//W3C//DTD SVG 20010904//EN"
 "http://www.w3.org/TR/2001/REC-SVG-20010904/DTD/svg10.dtd">
<svg version="1.0" xmlns="http://www.w3.org/2000/svg"
 width="517.000000pt" height="181.000000pt" viewBox="0 0 517.000000 181.000000"
 preserveAspectRatio="xMidYMid meet">

<g transform="translate(0.000000,181.000000) scale(0.100000,-0.100000)"
fill="#000000" stroke="none">
<path d="M0 1800 c0 -11 28 -12 558 -10 378 1 378 1 352 -40 -9 -14 13 -50 31
-50 4 0 19 -4 34 -10 l25 -10 -20 -20 c-11 -11 -20 -27 -20 -35 0 -29 40 -15
86 31 45 44 53 71 14 46 -25 -15 -33 -15 -23 1 4 6 8 21 9 32 3 57 1 55 59 55
59 0 68 -8 80 -66 8 -36 9 -44 7 -72 -2 -19 -6 -21 -29 -16 -16 4 -33 13 -39
20 -16 20 -27 17 -51 -10 -33 -37 -44 -63 -43 -98 3 -129 -29 -200 -137 -304
-29 -28 -53 -58 -53 -68 0 -9 -4 -16 -9 -16 -5 0 -9 -16 -8 -35 1 -25 6 -37
20 -41 10 -3 29 -16 40 -27 l22 -22 5 97 c3 56 10 102 17 109 7 7 37 14 68 17
70 6 95 -12 95 -70 0 -22 5 -48 10 -59 13 -24 38 -25 36 -2 0 12 7 19 21 21
15 2 25 13 30 30 3 15 11 30 16 34 7 4 6 17 -3 37 -16 40 -7 61 27 62 88 1
163 12 163 24 0 7 -7 15 -15 19 -15 5 -21 37 -9 48 3 3 19 1 35 -6 28 -10 33
-8 57 20 30 34 70 54 107 54 14 0 25 5 25 11 0 6 23 9 63 7 34 -1 68 1 75 5
21 14 13 30 -13 25 -14 -3 -25 -2 -25 3 0 4 -9 11 -20 14 -38 12 -26 58 30
113 28 27 54 62 59 78 5 21 14 30 33 32 15 2 32 10 38 18 11 12 119 14 740 14
691 0 728 -1 743 -18 10 -10 17 -24 17 -30 0 -16 16 -23 34 -16 10 4 16 18 16
35 l0 29 75 0 c75 0 75 0 76 -27 1 -42 6 -62 19 -78 23 -27 31 -16 25 29 l-7
45 37 -10 c33 -9 39 -8 60 15 l24 26 225 0 c191 0 227 -2 240 -16 9 -8 16 -22
16 -31 0 -9 7 -21 17 -28 14 -11 13 -13 -10 -17 -19 -4 -27 -1 -27 8 0 9 -11
14 -27 14 -24 -1 -25 -2 -10 -11 24 -14 21 -29 -6 -29 -25 0 -77 -43 -77 -65
0 -7 -5 -15 -11 -17 -8 -3 -8 -11 2 -28 22 -38 38 -52 53 -47 11 4 12 -2 5
-31 -11 -49 -1 -92 28 -123 13 -14 21 -32 18 -40 -3 -8 1 -32 10 -52 15 -36
18 -38 88 -52 9 -2 17 1 17 6 0 5 6 9 14 9 7 0 42 9 77 21 39 12 76 18 95 14
24 -4 33 -1 38 10 9 23 49 15 61 -12 5 -13 15 -23 20 -23 26 0 65 27 70 49 6
23 64 84 97 102 33 18 57 10 80 -26 15 -23 31 -35 46 -35 14 0 21 4 16 11 -10
16 55 70 92 76 45 7 68 53 62 120 -4 43 -12 58 -49 97 -51 54 -68 88 -61 122
4 24 5 24 138 24 83 0 134 4 134 10 0 7 -868 10 -2585 10 -1717 0 -2585 -3
-2585 -10z m4520 -163 c0 -7 -6 -22 -14 -33 -14 -18 -16 -18 -33 -1 -15 15
-15 17 -1 17 9 0 18 7 22 15 7 18 26 20 26 2z m-280 -27 c6 -11 19 -20 30 -20
22 0 36 -18 32 -41 -2 -9 10 -27 26 -41 16 -13 36 -38 43 -54 9 -17 22 -28 33
-27 14 1 16 -4 12 -20 -3 -12 -6 -25 -6 -29 0 -14 -22 -9 -34 7 -6 9 -24 18
-40 21 -54 10 -81 33 -56 49 13 8 2 86 -15 103 -10 11 -17 11 -34 3 -25 -14
-26 -23 -5 -62 8 -17 13 -34 9 -37 -3 -3 -8 4 -12 16 -3 12 -13 22 -23 22 -20
0 -36 68 -20 84 6 6 10 18 10 28 0 25 36 23 50 -2z m545 0 c3 -5 1 -10 -4 -10
-6 0 -11 5 -11 10 0 6 2 10 4 10 3 0 8 -4 11 -10z m31 -65 c9 -14 22 -25 30
-25 7 0 11 -6 8 -14 -3 -7 5 -30 16 -50 l22 -36 -25 0 c-14 0 -37 4 -51 10
-22 8 -25 15 -24 52 1 24 -2 53 -6 66 -10 30 9 29 30 -3z m-3234 -34 c-15 -15
-18 -15 -23 -1 -9 22 10 43 27 29 10 -8 9 -14 -4 -28z m-497 -42 c0 -7 -8 -15
-17 -17 -18 -3 -25 18 -11 32 10 10 28 1 28 -15z m3385 -14 c16 -19 3 -55 -21
-55 -10 0 -19 6 -19 13 0 6 -3 22 -6 35 -5 17 -2 22 14 22 11 0 25 -7 32 -15z"/>
<path d="M3937 1764 c-20 -21 -5 -34 40 -34 41 0 45 2 33 14 -18 18 -63 30
-73 20z"/>
<path d="M3705 1740 c-3 -5 -2 -10 4 -10 5 0 13 5 16 10 3 6 2 10 -4 10 -5 0
-13 -4 -16 -10z"/>
<path d="M780 1690 c0 -19 3 -21 12 -12 9 9 9 15 0 24 -9 9 -12 7 -12 -12z"/>
<path d="M3415 1669 c-9 -14 6 -52 26 -67 11 -7 19 -19 19 -26 0 -27 27 -24
52 5 29 32 28 35 -45 74 -27 14 -49 20 -52 14z"/>
<path d="M3372 1521 c-11 -7 -10 -10 3 -15 9 -3 21 -3 26 0 6 3 16 0 24 -6 12
-10 15 -9 15 3 0 24 -42 35 -68 18z"/>
<path d="M881 1482 c-12 -18 -19 -37 -15 -43 4 -7 14 0 26 20 27 42 17 62 -11
23z"/>
<path d="M2286 1494 c-97 -23 -193 -80 -273 -160 -76 -78 -100 -126 -105 -214
-2 -40 0 -45 17 -41 61 11 162 4 194 -13 32 -17 33 -17 48 3 22 32 122 30 184
-3 l46 -25 44 22 c29 14 68 23 115 25 l71 4 11 -32 12 -32 30 22 c16 12 61 29
100 38 55 13 67 19 58 29 -8 10 -8 24 2 54 12 34 11 44 -3 74 -15 31 -21 35
-56 35 -22 0 -60 6 -83 14 -35 12 -175 36 -207 36 -5 0 -6 11 -3 25 3 18 13
27 36 33 18 5 32 16 34 26 4 21 -43 71 -82 86 -37 14 -119 11 -190 -6z"/>
<path d="M1430 1314 c0 -15 22 -44 31 -39 11 7 -7 45 -21 45 -6 0 -10 -3 -10
-6z"/>
<path d="M5160 1264 c0 -14 -4 -23 -10 -19 -5 3 -10 2 -10 -4 0 -5 -3 -18 -6
-28 -5 -17 -5 -17 9 0 11 14 16 15 20 5 3 -7 6 6 6 30 1 23 -1 42 -4 42 -3 0
-5 -12 -5 -26z"/>
<path d="M5037 1214 c-13 -13 -7 -24 14 -24 11 0 19 5 17 12 -5 14 -22 21 -31
12z"/>
<path d="M3052 933 l3 -278 33 -3 32 -3 -2 278 -3 278 -33 3 -32 3 2 -278z"/>
<path d="M977 1193 c-4 -3 -7 -125 -7 -270 l0 -263 35 0 35 0 0 270 0 270 -28
0 c-16 0 -32 -3 -35 -7z"/>
<path d="M3938 1173 c-55 -61 -43 -73 74 -73 55 0 71 4 86 21 30 32 9 85 -23
59 -12 -10 -18 -10 -31 1 -13 10 -17 10 -25 -2 -8 -12 -11 -11 -23 4 -18 23
-28 22 -58 -10z"/>
<path d="M4748 1163 c-6 -47 1 -59 52 -83 47 -22 63 -22 66 1 1 5 2 11 3 14 0
3 10 1 20 -5 14 -7 22 -7 26 1 9 14 -44 69 -66 69 -9 0 -30 7 -45 15 -41 21
-51 19 -56 -12z"/>
<path d="M4568 1126 c-20 -15 -24 -36 -7 -36 5 0 7 -5 3 -12 -9 -14 53 -3 73
14 11 9 9 14 -14 29 -33 22 -33 22 -55 5z"/>
<path d="M1090 1043 c1 -27 1 -27 15 -9 14 19 12 36 -6 36 -5 0 -9 -12 -9 -27z"/>
<path d="M1436 1042 c-8 -13 34 -54 48 -49 21 8 40 47 24 48 -7 0 -25 2 -40 4
-15 2 -30 1 -32 -3z"/>
<path d="M2208 1020 c-6 -38 0 -50 26 -50 98 0 159 -105 107 -184 -25 -37 -57
-55 -97 -56 -34 0 -47 -22 -37 -60 4 -15 14 -20 37 -20 29 0 109 34 148 62 14
10 20 9 35 -8 24 -27 102 -56 139 -52 26 3 29 7 29 38 0 33 -2 35 -40 41 -54
7 -82 24 -100 59 -19 37 -19 83 0 121 17 31 46 47 105 58 29 5 36 11 38 35 2
16 -2 32 -9 37 -25 15 -128 -12 -154 -41 -22 -24 -48 -26 -66 -4 -20 24 -60
41 -111 46 -44 5 -46 4 -50 -22z"/>
<path d="M2776 1038 c-50 -11 -91 -41 -123 -90 -24 -39 -25 -48 -29 -227 -2
-103 -1 -196 3 -209 4 -17 13 -22 39 -22 l33 0 3 78 3 77 85 6 c110 8 140 20
188 83 34 45 45 98 32 161 -9 43 -19 61 -55 94 -25 23 -48 41 -52 41 -5 1 -26
4 -48 9 -22 4 -57 3 -79 -1z m104 -89 c59 -33 77 -97 45 -159 -24 -46 -64 -61
-148 -58 l-72 3 -3 70 c-3 82 18 127 71 150 44 20 63 18 107 -6z"/>
<path d="M2778 901 c-16 -13 -22 -31 -25 -69 l-3 -52 44 0 c46 0 96 29 96 55
0 27 -23 65 -44 72 -37 12 -46 12 -68 -6z"/>
<path d="M3645 1036 c-50 -22 -70 -52 -70 -107 0 -42 5 -53 33 -81 32 -33 33
-33 147 -36 101 -3 116 -6 125 -23 7 -13 7 -25 0 -39 -9 -17 -23 -20 -138 -22
l-127 -3 0 -35 0 -35 110 -3 c61 -2 124 0 141 3 75 13 116 97 82 169 -21 48
-54 60 -172 66 -89 4 -111 8 -120 23 -8 12 -8 22 0 35 9 14 30 17 135 20 68 1
126 7 129 13 4 5 5 23 2 39 l-4 30 -122 0 c-78 -1 -132 -5 -151 -14z"/>
<path d="M3995 1038 c-3 -8 -4 -97 -3 -198 l3 -185 35 0 35 0 0 195 0 195 -33
3 c-20 2 -34 -2 -37 -10z"/>
<path d="M4651 1035 c-103 -33 -144 -115 -139 -281 l3 -99 35 0 35 0 5 120 c6
132 14 155 66 180 43 20 73 19 111 -5 49 -29 58 -54 63 -180 l5 -115 33 -3 34
-3 -4 139 c-3 139 -3 140 -34 178 -54 67 -136 94 -213 69z"/>
<path d="M5015 1040 c3 -5 8 -10 11 -10 2 0 4 5 4 10 0 6 -5 10 -11 10 -5 0
-7 -4 -4 -10z"/>
<path d="M261 1018 c-28 -14 -54 -38 -73 -67 -26 -41 -29 -53 -26 -113 3 -56
8 -73 34 -104 46 -57 88 -76 160 -72 48 3 71 10 103 32 46 32 50 45 21 71 -19
17 -20 16 -50 -9 -38 -31 -106 -35 -151 -9 -30 18 -37 29 -50 82 -25 106 101
180 196 115 l38 -25 20 20 21 21 -25 26 c-52 57 -142 70 -218 32z"/>
<path d="M675 1029 c-16 -6 -45 -26 -63 -43 -64 -60 -79 -141 -41 -222 26 -55
68 -89 131 -104 126 -32 257 95 229 222 -12 54 -47 103 -88 128 -43 25 -125
34 -168 19z m132 -79 c38 -23 53 -48 55 -94 5 -129 -141 -181 -221 -80 -25 32
-28 92 -5 135 28 56 113 75 171 39z"/>
<path d="M1200 1024 c-104 -45 -148 -157 -101 -260 60 -131 250 -146 326 -26
55 87 43 186 -32 252 -59 52 -125 64 -193 34z m125 -68 c40 -17 65 -60 65
-115 0 -76 -79 -133 -154 -112 -59 16 -86 55 -86 123 0 51 21 85 64 104 40 17
69 17 111 0z"/>
<path d="M1232 908 c-43 -22 -42 -96 3 -116 40 -18 62 -14 84 14 26 33 26 55
4 82 -22 26 -61 35 -91 20z"/>
<path d="M1614 1026 c-39 -17 -82 -61 -100 -103 -9 -22 -14 -71 -14 -148 l0
-116 33 3 32 3 3 113 c3 146 21 176 111 191 37 7 58 29 48 55 -8 20 -68 21
-113 2z"/>
<path d="M1924 1026 c-17 -8 -45 -31 -62 -52 -83 -101 -48 -250 72 -305 70
-32 144 -18 216 40 20 16 23 24 14 37 -21 35 -38 37 -78 10 -42 -28 -116 -37
-116 -14 0 7 46 59 102 115 l102 102 -23 25 c-13 14 -38 32 -56 40 -40 19
-129 20 -171 2z m114 -63 c22 -5 19 -11 -54 -84 -43 -43 -81 -76 -86 -73 -13
8 -9 63 7 95 17 31 69 69 95 69 8 0 26 -3 38 -7z"/>
<path d="M3244 1014 c-44 -30 -64 -54 -81 -99 -46 -120 55 -266 184 -265 73 1
158 58 182 123 18 46 13 124 -9 168 -48 94 -190 131 -276 73z m151 -58 c38
-16 75 -68 75 -104 0 -67 -58 -122 -127 -122 -128 0 -158 193 -35 230 39 12
49 12 87 -4z"/>
<path d="M4189 1017 c-18 -12 -47 -42 -63 -65 -26 -36 -31 -53 -30 -100 1
-149 146 -245 274 -179 146 74 150 283 6 351 -52 24 -145 21 -187 -7z m146
-61 c38 -16 75 -68 75 -104 0 -74 -66 -129 -141 -119 -119 16 -137 174 -25
223 40 17 49 17 91 0z"/>
<path d="M4238 889 c-10 -6 -18 -21 -18 -34 l0 -24 27 25 c28 26 22 51 -9 33z"/>
<path d="M4930 971 c0 -11 4 -22 9 -25 11 -7 23 22 15 35 -9 16 -24 10 -24
-10z"/>
<path d="M2198 916 c-7 -6 -26 -25 -42 -43 l-29 -32 33 -28 c41 -35 77 -43
111 -27 40 20 52 72 26 108 -17 23 -82 38 -99 22z"/>
<path d="M2515 895 c-14 -13 -25 -35 -25 -49 0 -30 37 -68 63 -64 15 3 19 14
21 71 3 61 2 67 -16 67 -10 0 -30 -11 -43 -25z"/>
<path d="M1747 893 c-4 -3 -7 -13 -7 -22 0 -9 -18 -36 -40 -61 -36 -40 -40
-51 -40 -96 0 -65 18 -101 77 -153 l48 -42 -18 -30 c-22 -39 -22 -51 3 -67 18
-11 20 -20 16 -75 -3 -34 -5 -66 -6 -70 0 -4 -9 -3 -20 3 -11 6 -17 16 -14 25
4 8 3 31 0 50 -7 34 -8 35 -44 29 -34 -5 -39 -2 -61 30 -25 39 -55 47 -65 19
-3 -10 -11 -26 -18 -35 -10 -15 -10 -21 5 -35 14 -15 24 -16 67 -7 45 10 50 9
56 -8 3 -11 -1 -27 -10 -37 -21 -23 -20 -29 7 -51 12 -10 19 -21 15 -25 -4 -4
-18 5 -31 19 -21 22 -26 24 -37 12 -20 -25 -8 -49 30 -59 19 -5 36 -10 38 -11
1 -2 -4 -16 -13 -32 -17 -33 -19 -81 -5 -119 l10 -26 -62 3 -63 3 -8 54 c-4
30 -16 69 -27 86 -11 18 -20 40 -20 50 0 13 -3 15 -13 6 -11 -8 -19 -5 -36 13
-20 21 -35 25 -119 31 -54 3 -108 8 -122 11 -31 6 -55 38 -63 85 -4 29 0 42
20 65 14 16 30 28 36 26 5 -2 17 0 25 3 12 5 12 8 -4 26 -23 25 -12 47 34 69
47 22 36 42 -30 56 -32 6 -76 23 -99 38 -22 15 -42 26 -43 24 -1 -2 -7 -15
-14 -30 -14 -34 -49 -44 -111 -32 -39 8 -47 13 -51 36 l-5 26 -24 -19 c-32
-26 -24 -71 28 -152 23 -34 41 -73 41 -87 0 -14 9 -40 20 -58 22 -35 19 -66
-6 -76 -25 -10 -5 -58 42 -102 24 -23 44 -50 44 -59 0 -13 6 -16 24 -11 14 3
26 1 28 -5 4 -12 58 -1 58 12 0 5 7 9 15 9 17 0 21 -35 5 -45 -6 -4 -8 -10 -5
-14 2 -5 -2 -17 -9 -27 -14 -18 -33 -19 -361 -19 -320 0 -347 1 -356 18 -12
20 -29 23 -29 3 0 -10 -21 -15 -77 -19 -106 -8 -177 3 -181 26 -4 22 -37 57
-53 57 -6 0 -17 -7 -25 -15 -16 -16 -57 -12 -81 8 -10 7 -13 -2 -13 -42 l0
-51 2585 0 2585 0 -2 63 -1 62 -6 -55 -6 -55 -370 -1 c-203 0 -436 2 -517 4
-146 5 -148 5 -148 28 0 35 -10 53 -26 47 -10 -4 -12 0 -8 11 8 20 -3 21 -22
2 -19 -20 -18 -46 4 -47 10 0 12 -3 5 -6 -7 -2 -13 -10 -13 -17 0 -10 -39 -15
-152 -20 -153 -7 -966 -6 -1046 2 -38 4 -42 7 -42 32 0 15 7 33 15 40 12 10
13 16 4 26 -15 18 -34 18 -52 -1 -16 -15 -12 -55 5 -55 5 0 4 -9 -2 -20 -10
-19 -19 -21 -83 -18 -56 2 -72 7 -75 19 -1 9 8 20 23 27 39 18 50 57 30 109
-9 24 -23 43 -30 43 -8 0 -35 11 -60 24 -25 14 -53 22 -61 19 -7 -3 -14 -1
-14 5 0 6 6 12 13 15 9 3 8 8 -3 22 -11 14 -12 19 -2 22 6 3 12 14 12 25 0 11
8 22 20 25 11 3 20 12 20 19 0 12 -6 12 -36 -1 -40 -16 -65 -19 -63 -7 4 23
-3 44 -21 62 -12 12 -15 20 -7 20 7 0 19 9 27 21 8 11 22 30 32 40 9 11 15 28
13 37 -2 9 -4 20 -4 25 -1 4 -7 7 -14 7 -6 0 -34 11 -60 25 l-48 26 -56 -27
c-70 -32 -146 -30 -174 5 l-18 22 -40 -21 c-57 -28 -152 -28 -211 3 -80 40
-136 141 -128 229 3 35 -8 49 -25 31z m198 -508 c-16 -8 -39 -14 -50 -14 -17
-1 -17 1 5 13 14 8 36 14 50 14 24 0 24 0 -5 -13z m65 -89 c0 -2 -9 -6 -20 -9
-11 -3 -20 -1 -20 4 0 5 9 9 20 9 11 0 20 -2 20 -4z m-70 -61 c-7 -9 -10 -27
-7 -45 4 -16 2 -32 -3 -35 -6 -3 -10 -13 -10 -22 0 -8 -6 -29 -14 -46 -8 -18
-16 -40 -20 -50 -4 -12 -16 -17 -41 -17 -40 0 -43 8 -31 71 7 39 18 59 30 58
18 -3 46 12 46 25 0 16 51 89 57 82 3 -3 0 -12 -7 -21z m306 -12 c-10 -10 -19
5 -10 18 6 11 8 11 12 0 2 -7 1 -15 -2 -18z m-80 -9 c16 -4 19 -11 16 -35 -2
-17 3 -40 12 -54 l16 -25 -35 0 c-19 0 -35 5 -35 10 0 6 -11 15 -25 20 -14 5
-28 17 -32 26 -3 8 -17 20 -32 26 l-26 10 25 13 c26 15 80 19 116 9z m320 -80
c0 -16 4 -37 9 -47 4 -11 3 -23 -4 -30 -13 -13 -12 -14 -17 36 -1 21 -8 44
-13 51 -12 14 -3 28 13 23 6 -2 11 -17 12 -33z m-1216 0 c0 -17 -26 -19 -36
-3 -7 12 15 31 28 23 4 -3 8 -12 8 -20z m977 4 c-3 -8 -6 -5 -6 6 -1 11 2 17
5 13 3 -3 4 -12 1 -19z m192 -12 c-2 -2 -14 -7 -26 -10 -17 -5 -23 -3 -23 8 0
15 42 27 49 13 1 -5 1 -10 0 -11z m-1185 -37 c-8 -14 -21 -11 -21 5 0 8 6 12
14 9 7 -3 10 -9 7 -14z m1152 -16 c-2 -16 -5 -34 -5 -40 -1 -9 -17 -13 -46
-13 -43 0 -44 1 -33 20 7 11 16 20 21 20 4 0 17 9 29 20 30 27 40 25 34 -7z
m40 -28 c9 -8 11 -15 6 -15 -5 0 -15 7 -22 15 -7 8 -9 15 -6 15 4 0 14 -7 22
-15z m-2396 -5 c0 -5 -5 -10 -11 -10 -5 0 -7 5 -4 10 3 6 8 10 11 10 2 0 4 -4
4 -10z m2225 -10 c4 -6 -8 -10 -29 -10 -20 0 -36 5 -36 10 0 6 13 10 29 10 17
0 33 -4 36 -10z"/>
<path d="M5153 886 c-7 -9 -8 -17 -2 -23 5 -5 8 -116 7 -269 l-3 -259 -22 1
c-13 0 -23 -5 -23 -13 0 -8 5 -11 10 -8 6 3 10 -1 10 -9 0 -9 -4 -16 -10 -16
-5 0 -10 -4 -10 -9 0 -10 19 -9 37 2 6 4 14 1 16 -5 3 -7 6 130 6 305 1 174 0
317 -1 317 -2 -1 -8 -7 -15 -14z"/>
<path d="M4983 863 c-20 -13 -23 -24 -23 -78 0 -74 6 -96 26 -88 8 3 14 0 14
-6 0 -6 8 -11 18 -11 10 0 23 -5 30 -12 17 -17 55 21 46 46 -5 14 -14 16 -39
12 -30 -6 -33 -4 -39 25 -10 50 -7 59 19 71 29 13 31 21 9 42 -19 20 -33 19
-61 -1z"/>
<path d="M535 680 c-10 -16 9 -33 30 -28 16 3 15 5 -3 21 -14 13 -22 15 -27 7z"/>
<path d="M1380 626 l-55 -31 32 -3 c18 -2 41 1 51 7 13 7 22 7 30 -1 19 -19
23 -3 10 29 l-13 30 -55 -31z"/>
<path d="M4120 630 c-6 -10 -11 -29 -11 -42 -1 -17 -3 -18 -6 -5 -2 9 -9 17
-15 17 -6 0 -7 -7 -3 -17 27 -65 2 -103 -74 -111 -57 -6 -80 -24 -73 -59 4
-24 3 -25 -22 -19 -15 4 -26 2 -26 -4 0 -5 6 -10 14 -10 18 0 27 -23 16 -40
-10 -17 10 -50 30 -50 9 0 20 -4 26 -9 5 -4 24 -11 41 -14 29 -6 35 -3 48 23
8 16 15 38 15 50 0 11 7 23 16 27 20 8 59 -37 93 -105 13 -26 26 -53 30 -61 4
-7 11 -14 16 -15 6 0 20 -12 32 -26 18 -21 25 -23 40 -13 10 7 32 19 49 27 23
10 33 22 36 45 3 18 1 34 -4 37 -13 8 -9 44 8 74 11 18 14 34 9 46 -8 18 -10
30 -14 77 0 9 -6 17 -12 17 -14 0 -39 25 -39 39 0 6 -7 11 -16 11 -11 0 -15
-6 -11 -19 3 -12 -1 -22 -10 -25 -24 -10 -31 2 -28 41 4 37 25 63 52 63 7 0
13 5 13 10 0 6 -20 10 -45 10 -25 0 -72 11 -105 24 -58 24 -60 24 -70 6z m250
-270 c-11 -20 -22 -25 -33 -14 -11 11 5 34 24 34 17 0 18 -3 9 -20z m-26 -56
c18 -7 21 -30 6 -39 -15 -9 -40 14 -33 31 6 16 6 16 27 8z"/>
<path d="M2760 591 c0 -5 17 -11 39 -15 53 -8 125 -72 126 -112 0 -23 5 -30
23 -32 25 -4 58 -63 48 -87 -6 -18 44 -37 86 -33 l33 3 -3 -43 c-3 -51 12 -49
34 5 17 40 11 69 -17 83 -26 15 -24 24 16 64 31 32 34 38 23 61 -10 23 -15 24
-62 19 -51 -6 -51 -6 -67 28 -13 26 -23 34 -46 36 -28 2 -29 0 -25 -33 3 -21
0 -35 -7 -35 -6 0 -11 4 -11 10 0 15 -52 61 -87 76 -36 15 -103 19 -103 5z"/>
<path d="M2555 580 c3 -5 8 -10 11 -10 2 0 4 5 4 10 0 6 -5 10 -11 10 -5 0 -7
-4 -4 -10z"/>
<path d="M4825 550 c-3 -5 -12 -7 -20 -4 -19 8 -38 -37 -40 -98 -1 -39 2 -47
19 -52 26 -7 32 0 17 18 -13 16 1 56 19 56 5 0 15 12 22 28 7 15 23 28 36 30
12 2 22 7 22 12 0 18 -64 28 -75 10z"/>
<path d="M4920 540 c0 -19 3 -21 12 -12 9 9 9 15 0 24 -9 9 -12 7 -12 -12z"/>
<path d="M2561 534 c0 -11 3 -14 6 -6 3 7 2 16 -1 19 -3 4 -6 -2 -5 -13z"/>
<path d="M1457 513 c-4 -3 -7 -15 -7 -25 0 -13 7 -18 25 -18 14 0 25 4 25 8 0
14 -36 43 -43 35z"/>
<path d="M2544 485 c-3 -8 -3 -19 1 -25 11 -18 25 -11 25 15 0 27 -17 34 -26
10z"/>
<path d="M1290 480 c19 -13 30 -13 30 0 0 6 -10 10 -22 10 -19 0 -20 -2 -8
-10z"/>
<path d="M4946 452 c-12 -23 -13 -31 -3 -35 31 -11 48 20 28 52 -7 11 -13 7
-25 -17z"/>
<path d="M3334 373 c-38 -7 -40 -93 -3 -93 5 0 14 10 19 23 15 35 38 60 49 52
6 -3 11 1 11 9 0 16 -26 19 -76 9z"/>
<path d="M2670 325 c0 -46 41 -69 105 -59 48 7 96 33 63 34 -10 0 -18 -5 -18
-11 0 -8 -4 -9 -13 0 -8 6 -18 8 -23 4 -5 -4 -3 -1 4 7 18 21 15 30 -11 30
-13 0 -28 5 -35 12 -8 8 -15 8 -26 -2 -13 -10 -17 -9 -22 4 -11 28 -24 17 -24
-19z"/>
<path d="M2560 299 c7 -11 14 -18 17 -15 8 8 -5 36 -17 36 -7 0 -7 -6 0 -21z"/>
<path d="M2939 306 c16 -19 55 -22 49 -3 -3 6 -17 14 -33 15 -25 3 -27 2 -16
-12z"/>
<path d="M4093 262 c-17 -11 -21 -54 -6 -59 16 -6 40 44 27 57 -5 5 -15 6 -21
2z"/>
<path d="M3226 215 c-20 -14 -41 -25 -46 -25 -17 0 -21 -19 -8 -40 17 -27 39
-25 70 8 53 57 43 97 -16 57z"/>
<path d="M4857 213 c-12 -11 -8 -23 8 -23 8 0 15 7 15 15 0 16 -12 20 -23 8z"/>
<path d="M1585 198 c-4 -10 -4 -26 0 -35 6 -17 7 -17 16 0 7 11 7 23 0 35 -9
16 -10 16 -16 0z"/>
<path d="M3860 196 c0 -9 -7 -12 -19 -9 -12 3 -20 -2 -24 -16 -3 -13 -13 -21
-26 -21 -37 0 -23 -19 17 -22 29 -2 37 -7 37 -23 0 -34 14 -45 58 -45 52 0
134 37 141 65 17 63 -5 95 -53 75 -16 -6 -32 -19 -36 -28 -5 -14 -9 -12 -21
11 -11 20 -22 27 -44 27 -19 0 -30 -5 -30 -14z"/>
<path d="M4088 159 l5 -32 13 24 c18 32 17 39 -4 39 -15 0 -18 -6 -14 -31z"/>
<path d="M3345 120 c3 -5 10 -10 16 -10 5 0 9 5 9 10 0 6 -7 10 -16 10 -8 0
-12 -4 -9 -10z"/>
<path d="M4390 115 c-14 -17 -5 -35 19 -35 13 0 19 8 19 25 0 28 -19 33 -38
10z"/>
<path d="M4457 115 c-4 -8 -2 -17 3 -20 6 -4 10 3 10 14 0 25 -6 27 -13 6z"/>
<path d="M4560 90 c0 -7 -8 -9 -20 -5 -21 7 -24 -2 -14 -29 4 -10 18 -16 36
-16 26 0 29 3 26 27 -3 26 -28 46 -28 23z"/>
<path d="M3285 79 c-4 -6 -5 -13 -2 -16 7 -7 27 6 27 18 0 12 -17 12 -25 -2z"/>
<path d="M2860 39 c0 -5 5 -7 10 -4 6 3 10 8 10 11 0 2 -4 4 -10 4 -5 0 -10
-5 -10 -11z"/>
</g>
</svg>
